<svg width="28" height="26" viewBox="0 0 28 26" fill="none" xmlns="http://www.w3.org/2000/svg">
<path d="M24.9688 19.8573C24.9688 20.2473 24.8807 20.6482 24.6934 21.0382C24.5062 21.4282 24.2639 21.7965 23.9445 22.1432C23.4048 22.7282 22.8101 23.1507 22.1382 23.4215C21.4774 23.6923 20.7615 23.8332 19.9906 23.8332C18.8671 23.8332 17.6666 23.5732 16.4001 23.0423C15.1335 22.5115 13.8669 21.7965 12.6113 20.8973C11.3447 19.9873 10.1442 18.9798 8.99879 17.864C7.86437 16.7373 6.84008 15.5565 5.92594 14.3215C5.02281 13.0865 4.2959 11.8515 3.76724 10.6273C3.23857 9.39234 2.97424 8.2115 2.97424 7.08484C2.97424 6.34817 3.10641 5.644 3.37074 4.994C3.63507 4.33317 4.05359 3.7265 4.63733 3.18484C5.34221 2.50234 6.11317 2.1665 6.9282 2.1665C7.23658 2.1665 7.54497 2.2315 7.82031 2.3615C8.10667 2.4915 8.35999 2.6865 8.55824 2.96817L11.1134 6.51067C11.3117 6.7815 11.4549 7.03067 11.554 7.269C11.6531 7.4965 11.7082 7.724 11.7082 7.92984C11.7082 8.18984 11.6311 8.44984 11.4769 8.699C11.3337 8.94817 11.1245 9.20817 10.8601 9.46817L10.0231 10.324C9.90192 10.4432 9.84685 10.584 9.84685 10.7573C9.84685 10.844 9.85786 10.9198 9.87989 11.0065C9.91293 11.0932 9.94598 11.1582 9.968 11.2232C10.1663 11.5807 10.5077 12.0465 10.9923 12.6098C11.4879 13.1732 12.0166 13.7473 12.5893 14.3215C13.184 14.8957 13.7567 15.4265 14.3405 15.914C14.9132 16.3907 15.3868 16.7157 15.7613 16.9107C15.8163 16.9323 15.8824 16.9648 15.9595 16.9973C16.0476 17.0298 16.1357 17.0407 16.2349 17.0407C16.4221 17.0407 16.5653 16.9757 16.6864 16.8565L17.5235 16.044C17.7988 15.7732 18.0631 15.5673 18.3165 15.4373C18.5698 15.2857 18.8231 15.2098 19.0984 15.2098C19.3077 15.2098 19.528 15.2532 19.7703 15.3507C20.0126 15.4482 20.2659 15.589 20.5412 15.7732L24.1868 18.319C24.4732 18.514 24.6714 18.7415 24.7926 19.0123C24.9027 19.2832 24.9688 19.554 24.9688 19.8573Z" stroke="#1C1C1C" stroke-width="1.5" stroke-miterlimit="10"/>
</svg>
